<?xml version="1.0" encoding="utf-8" ?>
<svg baseProfile="full" height="57.5mm" version="1.1" viewBox="0,0,306.20000000000005,57.5" width="306.20000000000005mm" xmlns="http://www.w3.org/2000/svg" xmlns:ev="http://www.w3.org/2001/xml-events" xmlns:xlink="http://www.w3.org/1999/xlink"><defs /><rect fill="#FFFFFF" height="57.5" width="306.20000000000005" x="0" y="0" /><text fill="#000000" style="font-size:6px; font-family:Arial; font-weight:bold;" x="10" y="10" /><text fill="#000000" style="font-size:3px; font-family:Arial;" x="10" y="14.4">2024: 52 hours</text><text fill="#000000" style="font-size:2.5px; font-family:Arial" x="10" y="18.3">Jan</text><rect fill="#549F57" height="4" rx="1" ry="1" width="4" x="10" y="19.7"><title>2024-01-01 85.88 mins</title></rect><rect fill="#68c06d" height="4" rx="1" ry="1" width="4" x="10" y="25.1"><title>2024-01-02 22.02 mins</title></rect><rect fill="#549F57" height="4" rx="1" ry="1" width="4" x="10" y="30.5"><title>2024-01-03 49.42 mins</title></rect><rect fill="#67bf6c" height="4" rx="1" ry="1" width="4" x="10" y="35.9"><title>2024-01-04 35.1 mins</title></rect><rect fill="#67bf6c" height="4" rx="1" ry="1" width="4" x="10" y="41.300000000000004"><title>2024-01-05 24.72 mins</title></rect><rect fill="#68c06d" height="4" rx="1" ry="1" width="4" x="10" y="46.699999999999996"><title>2024-01-06 16.8 mins</title></rect><rect fill="#549F57" height="4" rx="1" ry="1" width="4" x="10" y="52.1"><title>2024-01-07 60.77 mins</title></rect><rect fill="#67bf6c" height="4" rx="1" ry="1" width="4" x="15.4" y="19.7"><title>2024-01-08 27.72 mins</title></rect><rect fill="#67bf6c" height="4" rx="1" ry="1" width="4" x="15.4" y="25.1"><title>2024-01-09 27.7 mins</title></rect><rect fill="#67bf6c" height="4" rx="1" ry="1" width="4" x="15.4" y="30.5"><title>2024-01-10 25.37 mins</title></rect><rect fill="#66be6b" height="4" rx="1" ry="1" width="4" x="15.4" y="35.9"><title>2024-01-11 44.78 mins</title></rect><rect fill="#68c06d" height="4" rx="1" ry="1" width="4" x="15.4" y="41.300000000000004"><title>2024-01-12 20.1 mins</title></rect><rect fill="#68c06d" height="4" rx="1" ry="1" width="4" x="15.4" y="46.699999999999996"><title>2024-01-13 20.85 mins</title></rect><rect fill="#67bf6c" height="4" rx="1" ry="1" width="4" x="15.4" y="52.1"><title>2024-01-14 29.45 mins</title></rect><rect fill="#aae6ac" height="4" rx="1" ry="1" width="4" x="20.8" y="19.7"><title>2024-01-15 6.72 mins</title></rect><rect fill="#67bf6c" height="4" rx="1" ry="1" width="4" x="20.8" y="25.1"><title>2024-01-16 27.48 mins</title></rect><rect fill="#67bf6c" height="4" rx="1" ry="1" width="4" x="20.8" y="30.5"><title>2024-01-17 27.92 mins</title></rect><rect fill="#549F57" height="4" rx="1" ry="1" width="4" x="20.8" y="35.9"><title>2024-01-18 65.02 mins</title></rect><rect fill="#aae6ac" height="4" rx="1" ry="1" width="4" x="20.8" y="41.300000000000004"><title>2024-01-19 7.03 mins</title></rect><rect fill="#67bf6c" height="4" rx="1" ry="1" width="4" x="20.8" y="46.699999999999996"><title>2024-01-20 25.98 mins</title></rect><rect fill="#a8e5aa" height="4" rx="1" ry="1" width="4" x="20.8" y="52.1"><title>2024-01-21 14.53 mins</title></rect><rect fill="#abe7ad" height="4" rx="1" ry="1" width="4" x="26.200000000000003" y="19.7"><title>2024-01-22 4.47 mins</title></rect><rect fill="#aae6ac" height="4" rx="1" ry="1" width="4" x="26.200000000000003" y="25.1"><title>2024-01-23 9.72 mins</title></rect><rect fill="#68c06d" height="4" rx="1" ry="1" width="4" x="26.200000000000003" y="30.5"><title>2024-01-24 21.38 mins</title></rect><rect fill="#abe7ad" height="4" rx="1" ry="1" width="4" x="26.200000000000003" y="35.9"><title>2024-01-25 3.92 mins</title></rect><rect fill="#abe7ad" height="4" rx="1" ry="1" width="4" x="26.200000000000003" y="41.300000000000004"><title>2024-01-26 3.9 mins</title></rect><rect fill="#abe6ad" height="4" rx="1" ry="1" width="4" x="26.200000000000003" y="46.699999999999996"><title>2024-01-27 4.5 mins</title></rect><rect fill="#549F57" height="4" rx="1" ry="1" width="4" x="26.200000000000003" y="52.1"><title>2024-01-28 52.98 mins</title></rect><rect fill="#aae6ac" height="4" rx="1" ry="1" width="4" x="31.6" y="19.7"><title>2024-01-29 6.32 mins</title></rect><rect fill="#a8e5aa" height="4" rx="1" ry="1" width="4" x="31.6" y="25.1"><title>2024-01-30 16.18 mins</title></rect><rect fill="#68c06d" height="4" rx="1" ry="1" width="4" x="31.6" y="30.5"><title>2024-01-31 16.42 mins</title></rect><rect fill="#aae6ac" height="4" rx="1" ry="1" width="4" x="31.6" y="35.9"><title>2024-02-01 6.3 mins</title></rect><rect fill="#68c06d" height="4" rx="1" ry="1" width="4" x="31.6" y="41.300000000000004"><title>2024-02-02 19.32 mins</title></rect><rect fill="#68c06d" height="4" rx="1" ry="1" width="4" x="31.6" y="46.699999999999996"><title>2024-02-03 17.37 mins</title></rect><rect fill="#68c06d" height="4" rx="1" ry="1" width="4" x="31.6" y="52.1"><title>2024-02-04 20.42 mins</title></rect><text fill="#000000" style="font-size:2.5px; font-family:Arial" x="37.0" y="18.3">Feb</text><rect fill="#67bf6c" height="4" rx="1" ry="1" width="4" x="37.0" y="19.7"><title>2024-02-05 24.38 mins</title></rect><rect fill="#aae6ac" height="4" rx="1" ry="1" width="4" x="37.0" y="25.1"><title>2024-02-06 8.5 mins</title></rect><rect fill="#a9e6ab" height="4" rx="1" ry="1" width="4" x="37.0" y="30.5"><title>2024-02-07 10.62 mins</title></rect><rect fill="#abe7ad" height="4" rx="1" ry="1" width="4" x="37.0" y="35.9"><title>2024-02-08 2.35 mins</title></rect><rect fill="#ace7ae" height="4" rx="1" ry="1" width="4" x="37.0" y="41.300000000000004"><title>2024-02-09 0.05 mins</title></rect><rect fill="#EBEDF0" height="4" rx="1" ry="1" width="4" x="37.0" y="46.699999999999996"><title>2024-02-10</title></rect><rect fill="#EBEDF0" height="4" rx="1" ry="1" width="4" x="37.0" y="52.1"><title>2024-02-11</title></rect><rect fill="#EBEDF0" height="4" rx="1" ry="1" width="4" x="42.4" y="19.7"><title>2024-02-12</title></rect><rect fill="#EBEDF0" height="4" rx="1" ry="1" width="4" x="42.4" y="25.1"><title>2024-02-13</title></rect><rect fill="#EBEDF0" height="4" rx="1" ry="1" width="4" x="42.4" y="30.5"><title>2024-02-14</title></rect><rect fill="#EBEDF0" height="4" rx="1" ry="1" width="4" x="42.4" y="35.9"><title>2024-02-15</title></rect><rect fill="#66be6b" height="4" rx="1" ry="1" width="4" x="42.4" y="41.300000000000004"><title>2024-02-16 41.17 mins</title></rect><rect fill="#EBEDF0" height="4" rx="1" ry="1" width="4" x="42.4" y="46.699999999999996"><title>2024-02-17</title></rect><rect fill="#abe6ad" height="4" rx="1" ry="1" width="4" x="42.4" y="52.1"><title>2024-02-18 5.82 mins</title></rect><rect fill="#68c06d" height="4" rx="1" ry="1" width="4" x="47.8" y="19.7"><title>2024-02-19 17.83 mins</title></rect><rect fill="#aae6ac" height="4" rx="1" ry="1" width="4" x="47.8" y="25.1"><title>2024-02-20 7.65 mins</title></rect><rect fill="#aae6ac" height="4" rx="1" ry="1" width="4" x="47.8" y="30.5"><title>2024-02-21 8.95 mins</title></rect><rect fill="#66be6b" height="4" rx="1" ry="1" width="4" x="47.8" y="35.9"><title>2024-02-22 41.05 mins</title></rect><rect fill="#aae6ac" height="4" rx="1" ry="1" width="4" x="47.8" y="41.300000000000004"><title>2024-02-23 7.03 mins</title></rect><rect fill="#EBEDF0" height="4" rx="1" ry="1" width="4" x="47.8" y="46.699999999999996"><title>2024-02-24</title></rect><rect fill="#ace7ae" height="4" rx="1" ry="1" width="4" x="47.8" y="52.1"><title>2024-02-25 0.07 mins</title></rect><rect fill="#68c06d" height="4" rx="1" ry="1" width="4" x="53.199999999999996" y="19.7"><title>2024-02-26 16.98 mins</title></rect><rect fill="#68c06d" height="4" rx="1" ry="1" width="4" x="53.199999999999996" y="25.1"><title>2024-02-27 18.1 mins</title></rect><rect fill="#a9e6ab" height="4" rx="1" ry="1" width="4" x="53.199999999999996" y="30.5"><title>2024-02-28 12.07 mins</title></rect><rect fill="#abe6ad" height="4" rx="1" ry="1" width="4" x="53.199999999999996" y="35.9"><title>2024-02-29 5.92 mins</title></rect><rect fill="#aae6ac" height="4" rx="1" ry="1" width="4" x="53.199999999999996" y="41.300000000000004"><title>2024-03-01 8.72 mins</title></rect><rect fill="#EBEDF0" height="4" rx="1" ry="1" width="4" x="53.199999999999996" y="46.699999999999996"><title>2024-03-02</title></rect><rect fill="#EBEDF0" height="4" rx="1" ry="1" width="4" x="53.199999999999996" y="52.1"><title>2024-03-03</title></rect><text fill="#000000" style="font-size:2.5px; font-family:Arial" x="58.599999999999994" y="18.3">Mar</text><rect fill="#abe7ad" height="4" rx="1" ry="1" width="4" x="58.599999999999994" y="19.7"><title>2024-03-04 2.3 mins</title></rect><rect fill="#aae6ac" height="4" rx="1" ry="1" width="4" x="58.599999999999994" y="25.1"><title>2024-03-05 7.97 mins</title></rect><rect fill="#549F57" height="4" rx="1" ry="1" width="4" x="58.599999999999994" y="30.5"><title>2024-03-06 53.82 mins</title></rect><rect fill="#68c06d" height="4" rx="1" ry="1" width="4" x="58.599999999999994" y="35.9"><title>2024-03-07 21.95 mins</title></rect><rect fill="#68c06d" height="4" rx="1" ry="1" width="4" x="58.599999999999994" y="41.300000000000004"><title>2024-03-08 21.6 mins</title></rect><rect fill="#a9e6ab" height="4" rx="1" ry="1" width="4" x="58.599999999999994" y="46.699999999999996"><title>2024-03-09 12.1 mins</title></rect><rect fill="#549F57" height="4" rx="1" ry="1" width="4" x="58.599999999999994" y="52.1"><title>2024-03-10 57.72 mins</title></rect><rect fill="#68c06d" height="4" rx="1" ry="1" width="4" x="63.99999999999999" y="19.7"><title>2024-03-11 20.1 mins</title></rect><rect fill="#549F57" height="4" rx="1" ry="1" width="4" x="63.99999999999999" y="25.1"><title>2024-03-12 53.27 mins</title></rect><rect fill="#67bf6b" height="4" rx="1" ry="1" width="4" x="63.99999999999999" y="30.5"><title>2024-03-13 38.35 mins</title></rect><rect fill="#66be6b" height="4" rx="1" ry="1" width="4" x="63.99999999999999" y="35.9"><title>2024-03-14 40.72 mins</title></rect><rect fill="#549F57" height="4" rx="1" ry="1" width="4" x="63.99999999999999" y="41.300000000000004"><title>2024-03-15 54.88 mins</title></rect><rect fill="#EBEDF0" height="4" rx="1" ry="1" width="4" x="63.99999999999999" y="46.699999999999996"><title>2024-03-16</title></rect><rect fill="#ace7ae" height="4" rx="1" ry="1" width="4" x="63.99999999999999" y="52.1"><title>2024-03-17 0.42 mins</title></rect><rect fill="#68c06d" height="4" rx="1" ry="1" width="4" x="69.39999999999999" y="19.7"><title>2024-03-18 18.13 mins</title></rect><rect fill="#66be6b" height="4" rx="1" ry="1" width="4" x="69.39999999999999" y="25.1"><title>2024-03-19 44.37 mins</title></rect><rect fill="#aae6ac" height="4" rx="1" ry="1" width="4" x="69.39999999999999" y="30.5"><title>2024-03-20 9.38 mins</title></rect><rect fill="#ace7ae" height="4" rx="1" ry="1" width="4" x="69.39999999999999" y="35.9"><title>2024-03-21 1.72 mins</title></rect><rect fill="#ace7ae" height="4" rx="1" ry="1" width="4" x="69.39999999999999" y="41.300000000000004"><title>2024-03-22 1.72 mins</title></rect><rect fill="#549F57" height="4" rx="1" ry="1" width="4" x="69.39999999999999" y="46.699999999999996"><title>2024-03-23 46.22 mins</title></rect><rect fill="#ace7ae" height="4" rx="1" ry="1" width="4" x="69.39999999999999" y="52.1"><title>2024-03-24 1.22 mins</title></rect><rect fill="#a8e5aa" height="4" rx="1" ry="1" width="4" x="74.8" y="19.7"><title>2024-03-25 14.62 mins</title></rect><rect fill="#68c06d" height="4" rx="1" ry="1" width="4" x="74.8" y="25.1"><title>2024-03-26 21.57 mins</title></rect><rect fill="#67bf6b" height="4" rx="1" ry="1" width="4" x="74.8" y="30.5"><title>2024-03-27 38.43 mins</title></rect><rect fill="#68c06d" height="4" rx="1" ry="1" width="4" x="74.8" y="35.9"><title>2024-03-28 21.07 mins</title></rect><rect fill="#aae6ac" height="4" rx="1" ry="1" width="4" x="74.8" y="41.300000000000004"><title>2024-03-29 7.3 mins</title></rect><rect fill="#ace7ae" height="4" rx="1" ry="1" width="4" x="74.8" y="46.699999999999996"><title>2024-03-30 0.17 mins</title></rect><rect fill="#a8e5aa" height="4" rx="1" ry="1" width="4" x="74.8" y="52.1"><title>2024-03-31 16.22 mins</title></rect><text fill="#000000" style="font-size:2.5px; font-family:Arial" x="80.2" y="18.3">Apr</text><rect fill="#a8e5ab" height="4" rx="1" ry="1" width="4" x="80.2" y="19.7"><title>2024-04-01 14.05 mins</title></rect><rect fill="#68c06d" height="4" rx="1" ry="1" width="4" x="80.2" y="25.1"><title>2024-04-02 18.92 mins</title></rect><rect fill="#68c06d" height="4" rx="1" ry="1" width="4" x="80.2" y="30.5"><title>2024-04-03 18.7 mins</title></rect><rect fill="#ace7ae" height="4" rx="1" ry="1" width="4" x="80.2" y="35.9"><title>2024-04-04 1.12 mins</title></rect><rect fill="#ace7ae" height="4" rx="1" ry="1" width="4" x="80.2" y="41.300000000000004"><title>2024-04-05 1.03 mins</title></rect><rect fill="#abe7ad" height="4" rx="1" ry="1" width="4" x="80.2" y="46.699999999999996"><title>2024-04-06 2.08 mins</title></rect><rect fill="#68c06d" height="4" rx="1" ry="1" width="4" x="80.2" y="52.1"><title>2024-04-07 20.25 mins</title></rect><rect fill="#a9e6ab" height="4" rx="1" ry="1" width="4" x="85.60000000000001" y="19.7"><title>2024-04-08 12.25 mins</title></rect><rect fill="#67bf6c" height="4" rx="1" ry="1" width="4" x="85.60000000000001" y="25.1"><title>2024-04-09 28.72 mins</title></rect><rect fill="#a8e5aa" height="4" rx="1" ry="1" width="4" x="85.60000000000001" y="30.5"><title>2024-04-10 15.72 mins</title></rect><rect fill="#aae6ac" height="4" rx="1" ry="1" width="4" x="85.60000000000001" y="35.9"><title>2024-04-11 9.8 mins</title></rect><rect fill="#a9e6ab" height="4" rx="1" ry="1" width="4" x="85.60000000000001" y="41.300000000000004"><title>2024-04-12 12.13 mins</title></rect><rect fill="#aae6ac" height="4" rx="1" ry="1" width="4" x="85.60000000000001" y="46.699999999999996"><title>2024-04-13 6.1 mins</title></rect><rect fill="#abe6ad" height="4" rx="1" ry="1" width="4" x="85.60000000000001" y="52.1"><title>2024-04-14 5.2 mins</title></rect><rect fill="#68c06d" height="4" rx="1" ry="1" width="4" x="91.00000000000001" y="19.7"><title>2024-04-15 21.73 mins</title></rect><rect fill="#aae6ac" height="4" rx="1" ry="1" width="4" x="91.00000000000001" y="25.1"><title>2024-04-16 7.37 mins</title></rect><rect fill="#67bf6c" height="4" rx="1" ry="1" width="4" x="91.00000000000001" y="30.5"><title>2024-04-17 36.57 mins</title></rect><rect fill="#a8e5ab" height="4" rx="1" ry="1" width="4" x="91.00000000000001" y="35.9"><title>2024-04-18 14.08 mins</title></rect><rect fill="#aae6ac" height="4" rx="1" ry="1" width="4" x="91.00000000000001" y="41.300000000000004"><title>2024-04-19 8.52 mins</title></rect><rect fill="#ace7ae" height="4" rx="1" ry="1" width="4" x="91.00000000000001" y="46.699999999999996"><title>2024-04-20 1.93 mins</title></rect><rect fill="#a9e6ab" height="4" rx="1" ry="1" width="4" x="91.00000000000001" y="52.1"><title>2024-04-21 10.98 mins</title></rect><rect fill="#67bf6c" height="4" rx="1" ry="1" width="4" x="96.40000000000002" y="19.7"><title>2024-04-22 28.38 mins</title></rect><rect fill="#abe6ad" height="4" rx="1" ry="1" width="4" x="96.40000000000002" y="25.1"><title>2024-04-23 5.15 mins</title></rect><rect fill="#68c06d" height="4" rx="1" ry="1" width="4" x="96.40000000000002" y="30.5"><title>2024-04-24 20.97 mins</title></rect><rect fill="#68c06d" height="4" rx="1" ry="1" width="4" x="96.40000000000002" y="35.9"><title>2024-04-25 16.68 mins</title></rect><rect fill="#67bf6c" height="4" rx="1" ry="1" width="4" x="96.40000000000002" y="41.300000000000004"><title>2024-04-26 37.63 mins</title></rect><rect fill="#67bf6c" height="4" rx="1" ry="1" width="4" x="96.40000000000002" y="46.699999999999996"><title>2024-04-27 32.05 mins</title></rect><rect fill="#abe7ad" height="4" rx="1" ry="1" width="4" x="96.40000000000002" y="52.1"><title>2024-04-28 2.5 mins</title></rect><rect fill="#67bf6c" height="4" rx="1" ry="1" width="4" x="101.80000000000003" y="19.7"><title>2024-04-29 24.05 mins</title></rect><rect fill="#a9e6ab" height="4" rx="1" ry="1" width="4" x="101.80000000000003" y="25.1"><title>2024-04-30 11.98 mins</title></rect><rect fill="#ace7ae" height="4" rx="1" ry="1" width="4" x="101.80000000000003" y="30.5"><title>2024-05-01 1.03 mins</title></rect><rect fill="#ace7ae" height="4" rx="1" ry="1" width="4" x="101.80000000000003" y="35.9"><title>2024-05-02 1.08 mins</title></rect><rect fill="#abe7ad" height="4" rx="1" ry="1" width="4" x="101.80000000000003" y="41.300000000000004"><title>2024-05-03 2.15 mins</title></rect><rect fill="#ace7ae" height="4" rx="1" ry="1" width="4" x="101.80000000000003" y="46.699999999999996"><title>2024-05-04 0.03 mins</title></rect><rect fill="#ace7ae" height="4" rx="1" ry="1" width="4" x="101.80000000000003" y="52.1"><title>2024-05-05 0.03 mins</title></rect><text fill="#000000" style="font-size:2.5px; font-family:Arial" x="107.20000000000003" y="18.3">May</text><rect fill="#ace7ae" height="4" rx="1" ry="1" width="4" x="107.20000000000003" y="19.7"><title>2024-05-06 0.43 mins</title></rect><rect fill="#ace7ae" height="4" rx="1" ry="1" width="4" x="107.20000000000003" y="25.1"><title>2024-05-07 0.2 mins</title></rect><rect fill="#68c06d" height="4" rx="1" ry="1" width="4" x="107.20000000000003" y="30.5"><title>2024-05-08 17.73 mins</title></rect><rect fill="#67bf6c" height="4" rx="1" ry="1" width="4" x="107.20000000000003" y="35.9"><title>2024-05-09 34.08 mins</title></rect><rect fill="#a9e6ab" height="4" rx="1" ry="1" width="4" x="107.20000000000003" y="41.300000000000004"><title>2024-05-10 11.05 mins</title></rect><rect fill="#a8e5aa" height="4" rx="1" ry="1" width="4" x="107.20000000000003" y="46.699999999999996"><title>2024-05-11 14.23 mins</title></rect><rect fill="#abe7ad" height="4" rx="1" ry="1" width="4" x="107.20000000000003" y="52.1"><title>2024-05-12 2.7 mins</title></rect><rect fill="#a9e6ac" height="4" rx="1" ry="1" width="4" x="112.60000000000004" y="19.7"><title>2024-05-13 9.97 mins</title></rect><rect fill="#68c06d" height="4" rx="1" ry="1" width="4" x="112.60000000000004" y="25.1"><title>2024-05-14 18.27 mins</title></rect><rect fill="#a8e5aa" height="4" rx="1" ry="1" width="4" x="112.60000000000004" y="30.5"><title>2024-05-15 15.67 mins</title></rect><rect fill="#abe7ad" height="4" rx="1" ry="1" width="4" x="112.60000000000004" y="35.9"><title>2024-05-16 3.72 mins</title></rect><rect fill="#a9e5ab" height="4" rx="1" ry="1" width="4" x="112.60000000000004" y="41.300000000000004"><title>2024-05-17 13.58 mins</title></rect><rect fill="#EBEDF0" height="4" rx="1" ry="1" width="4" x="112.60000000000004" y="46.699999999999996"><title>2024-05-18</title></rect><rect fill="#ace7ae" height="4" rx="1" ry="1" width="4" x="112.60000000000004" y="52.1"><title>2024-05-19 0.12 mins</title></rect><rect fill="#abe7ad" height="4" rx="1" ry="1" width="4" x="118.00000000000004" y="19.7"><title>2024-05-20 3.75 mins</title></rect><rect fill="#ace7ae" height="4" rx="1" ry="1" width="4" x="118.00000000000004" y="25.1"><title>2024-05-21 0.52 mins</title></rect><rect fill="#abe6ad" height="4" rx="1" ry="1" width="4" x="118.00000000000004" y="30.5"><title>2024-05-22 5.3 mins</title></rect><rect fill="#ace7ae" height="4" rx="1" ry="1" width="4" x="118.00000000000004" y="35.9"><title>2024-05-23 0.35 mins</title></rect><rect fill="#EBEDF0" height="4" rx="1" ry="1" width="4" x="118.00000000000004" y="41.300000000000004"><title>2024-05-24</title></rect><rect fill="#EBEDF0" height="4" rx="1" ry="1" width="4" x="118.00000000000004" y="46.699999999999996"><title>2024-05-25</title></rect><rect fill="#ace7ae" height="4" rx="1" ry="1" width="4" x="118.00000000000004" y="52.1"><title>2024-05-26 0.02 mins</title></rect><rect fill="#EBEDF0" height="4" rx="1" ry="1" width="4" x="123.40000000000005" y="19.7"><title>2024-05-27</title></rect><rect fill="#EBEDF0" height="4" rx="1" ry="1" width="4" x="123.40000000000005" y="25.1"><title>2024-05-28</title></rect><rect fill="#EBEDF0" height="4" rx="1" ry="1" width="4" x="123.40000000000005" y="30.5"><title>2024-05-29</title></rect><rect fill="#EBEDF0" height="4" rx="1" ry="1" width="4" x="123.40000000000005" y="35.9"><title>2024-05-30</title></rect><rect fill="#EBEDF0" height="4" rx="1" ry="1" width="4" x="123.40000000000005" y="41.300000000000004"><title>2024-05-31</title></rect><rect fill="#EBEDF0" height="4" rx="1" ry="1" width="4" x="123.40000000000005" y="46.699999999999996"><title>2024-06-01</title></rect><rect fill="#EBEDF0" height="4" rx="1" ry="1" width="4" x="123.40000000000005" y="52.1"><title>2024-06-02</title></rect><text fill="#000000" style="font-size:2.5px; font-family:Arial" x="128.80000000000004" y="18.3">Jun</text><rect fill="#EBEDF0" height="4" rx="1" ry="1" width="4" x="128.80000000000004" y="19.7"><title>2024-06-03</title></rect><rect fill="#EBEDF0" height="4" rx="1" ry="1" width="4" x="128.80000000000004" y="25.1"><title>2024-06-04</title></rect><rect fill="#EBEDF0" height="4" rx="1" ry="1" width="4" x="128.80000000000004" y="30.5"><title>2024-06-05</title></rect><rect fill="#68c06d" height="4" rx="1" ry="1" width="4" x="128.80000000000004" y="35.9"><title>2024-06-06 20.3 mins</title></rect><rect fill="#EBEDF0" height="4" rx="1" ry="1" width="4" x="128.80000000000004" y="41.300000000000004"><title>2024-06-07</title></rect><rect fill="#EBEDF0" height="4" rx="1" ry="1" width="4" x="128.80000000000004" y="46.699999999999996"><title>2024-06-08</title></rect><rect fill="#EBEDF0" height="4" rx="1" ry="1" width="4" x="128.80000000000004" y="52.1"><title>2024-06-09</title></rect><rect fill="#EBEDF0" height="4" rx="1" ry="1" width="4" x="134.20000000000005" y="19.7"><title>2024-06-10</title></rect><rect fill="#EBEDF0" height="4" rx="1" ry="1" width="4" x="134.20000000000005" y="25.1"><title>2024-06-11</title></rect><rect fill="#EBEDF0" height="4" rx="1" ry="1" width="4" x="134.20000000000005" y="30.5"><title>2024-06-12</title></rect><rect fill="#EBEDF0" height="4" rx="1" ry="1" width="4" x="134.20000000000005" y="35.9"><title>2024-06-13</title></rect><rect fill="#EBEDF0" height="4" rx="1" ry="1" width="4" x="134.20000000000005" y="41.300000000000004"><title>2024-06-14</title></rect><rect fill="#EBEDF0" height="4" rx="1" ry="1" width="4" x="134.20000000000005" y="46.699999999999996"><title>2024-06-15</title></rect><rect fill="#EBEDF0" height="4" rx="1" ry="1" width="4" x="134.20000000000005" y="52.1"><title>2024-06-16</title></rect><rect fill="#EBEDF0" height="4" rx="1" ry="1" width="4" x="139.60000000000005" y="19.7"><title>2024-06-17</title></rect><rect fill="#EBEDF0" height="4" rx="1" ry="1" width="4" x="139.60000000000005" y="25.1"><title>2024-06-18</title></rect><rect fill="#a9e5ab" height="4" rx="1" ry="1" width="4" x="139.60000000000005" y="30.5"><title>2024-06-19 13.38 mins</title></rect><rect fill="#a8e5ab" height="4" rx="1" ry="1" width="4" x="139.60000000000005" y="35.9"><title>2024-06-20 14.1 mins</title></rect><rect fill="#EBEDF0" height="4" rx="1" ry="1" width="4" x="139.60000000000005" y="41.300000000000004"><title>2024-06-21</title></rect><rect fill="#ace7ae" height="4" rx="1" ry="1" width="4" x="139.60000000000005" y="46.699999999999996"><title>2024-06-22 0.03 mins</title></rect><rect fill="#EBEDF0" height="4" rx="1" ry="1" width="4" x="139.60000000000005" y="52.1"><title>2024-06-23</title></rect><rect fill="#EBEDF0" height="4" rx="1" ry="1" width="4" x="145.00000000000006" y="19.7"><title>2024-06-24</title></rect><rect fill="#EBEDF0" height="4" rx="1" ry="1" width="4" x="145.00000000000006" y="25.1"><title>2024-06-25</title></rect><rect fill="#EBEDF0" height="4" rx="1" ry="1" width="4" x="145.00000000000006" y="30.5"><title>2024-06-26</title></rect><rect fill="#EBEDF0" height="4" rx="1" ry="1" width="4" x="145.00000000000006" y="35.9"><title>2024-06-27</title></rect><rect fill="#EBEDF0" height="4" rx="1" ry="1" width="4" x="145.00000000000006" y="41.300000000000004"><title>2024-06-28</title></rect><rect fill="#EBEDF0" height="4" rx="1" ry="1" width="4" x="145.00000000000006" y="46.699999999999996"><title>2024-06-29</title></rect><rect fill="#EBEDF0" height="4" rx="1" ry="1" width="4" x="145.00000000000006" y="52.1"><title>2024-06-30</title></rect><text fill="#000000" style="font-size:2.5px; font-family:Arial" x="150.40000000000006" y="18.3">Jul</text><rect fill="#EBEDF0" height="4" rx="1" ry="1" width="4" x="150.40000000000006" y="19.7"><title>2024-07-01</title></rect><rect fill="#EBEDF0" height="4" rx="1" ry="1" width="4" x="150.40000000000006" y="25.1"><title>2024-07-02</title></rect><rect fill="#ace7ae" height="4" rx="1" ry="1" width="4" x="150.40000000000006" y="30.5"><title>2024-07-03 0.08 mins</title></rect><rect fill="#EBEDF0" height="4" rx="1" ry="1" width="4" x="150.40000000000006" y="35.9"><title>2024-07-04</title></rect><rect fill="#EBEDF0" height="4" rx="1" ry="1" width="4" x="150.40000000000006" y="41.300000000000004"><title>2024-07-05</title></rect><rect fill="#EBEDF0" height="4" rx="1" ry="1" width="4" x="150.40000000000006" y="46.699999999999996"><title>2024-07-06</title></rect><rect fill="#EBEDF0" height="4" rx="1" ry="1" width="4" x="150.40000000000006" y="52.1"><title>2024-07-07</title></rect><rect fill="#EBEDF0" height="4" rx="1" ry="1" width="4" x="155.80000000000007" y="19.7"><title>2024-07-08</title></rect><rect fill="#EBEDF0" height="4" rx="1" ry="1" width="4" x="155.80000000000007" y="25.1"><title>2024-07-09</title></rect><rect fill="#EBEDF0" height="4" rx="1" ry="1" width="4" x="155.80000000000007" y="30.5"><title>2024-07-10</title></rect><rect fill="#EBEDF0" height="4" rx="1" ry="1" width="4" x="155.80000000000007" y="35.9"><title>2024-07-11</title></rect><rect fill="#EBEDF0" height="4" rx="1" ry="1" width="4" x="155.80000000000007" y="41.300000000000004"><title>2024-07-12</title></rect><rect fill="#aae6ac" height="4" rx="1" ry="1" width="4" x="155.80000000000007" y="46.699999999999996"><title>2024-07-13 7.08 mins</title></rect><rect fill="#ace7ae" height="4" rx="1" ry="1" width="4" x="155.80000000000007" y="52.1"><title>2024-07-14 0.05 mins</title></rect><rect fill="#EBEDF0" height="4" rx="1" ry="1" width="4" x="161.20000000000007" y="19.7"><title>2024-07-15</title></rect><rect fill="#EBEDF0" height="4" rx="1" ry="1" width="4" x="161.20000000000007" y="25.1"><title>2024-07-16</title></rect><rect fill="#EBEDF0" height="4" rx="1" ry="1" width="4" x="161.20000000000007" y="30.5"><title>2024-07-17</title></rect><rect fill="#ace7ae" height="4" rx="1" ry="1" width="4" x="161.20000000000007" y="35.9"><title>2024-07-18 0.83 mins</title></rect><rect fill="#EBEDF0" height="4" rx="1" ry="1" width="4" x="161.20000000000007" y="41.300000000000004"><title>2024-07-19</title></rect><rect fill="#EBEDF0" height="4" rx="1" ry="1" width="4" x="161.20000000000007" y="46.699999999999996"><title>2024-07-20</title></rect><rect fill="#EBEDF0" height="4" rx="1" ry="1" width="4" x="161.20000000000007" y="52.1"><title>2024-07-21</title></rect><rect fill="#EBEDF0" height="4" rx="1" ry="1" width="4" x="166.60000000000008" y="19.7"><title>2024-07-22</title></rect><rect fill="#EBEDF0" height="4" rx="1" ry="1" width="4" x="166.60000000000008" y="25.1"><title>2024-07-23</title></rect><rect fill="#EBEDF0" height="4" rx="1" ry="1" width="4" x="166.60000000000008" y="30.5"><title>2024-07-24</title></rect><rect fill="#EBEDF0" height="4" rx="1" ry="1" width="4" x="166.60000000000008" y="35.9"><title>2024-07-25</title></rect><rect fill="#EBEDF0" height="4" rx="1" ry="1" width="4" x="166.60000000000008" y="41.300000000000004"><title>2024-07-26</title></rect><rect fill="#ace7ae" height="4" rx="1" ry="1" width="4" x="166.60000000000008" y="46.699999999999996"><title>2024-07-27 0.03 mins</title></rect><rect fill="#ace7ae" height="4" rx="1" ry="1" width="4" x="166.60000000000008" y="52.1"><title>2024-07-28 1.23 mins</title></rect><rect fill="#a9e6ab" height="4" rx="1" ry="1" width="4" x="172.00000000000009" y="19.7"><title>2024-07-29 10.25 mins</title></rect><rect fill="#aae6ac" height="4" rx="1" ry="1" width="4" x="172.00000000000009" y="25.1"><title>2024-07-30 8.37 mins</title></rect><rect fill="#EBEDF0" height="4" rx="1" ry="1" width="4" x="172.00000000000009" y="30.5"><title>2024-07-31</title></rect><rect fill="#abe6ad" height="4" rx="1" ry="1" width="4" x="172.00000000000009" y="35.9"><title>2024-08-01 5.9 mins</title></rect><rect fill="#abe6ad" height="4" rx="1" ry="1" width="4" x="172.00000000000009" y="41.300000000000004"><title>2024-08-02 5.1 mins</title></rect><rect fill="#EBEDF0" height="4" rx="1" ry="1" width="4" x="172.00000000000009" y="46.699999999999996"><title>2024-08-03</title></rect><rect fill="#ace7ae" height="4" rx="1" ry="1" width="4" x="172.00000000000009" y="52.1"><title>2024-08-04 0.02 mins</title></rect><text fill="#000000" style="font-size:2.5px; font-family:Arial" x="177.4000000000001" y="18.3">Aug</text><rect fill="#abe6ad" height="4" rx="1" ry="1" width="4" x="177.4000000000001" y="19.7"><title>2024-08-05 5.32 mins</title></rect><rect fill="#abe6ad" height="4" rx="1" ry="1" width="4" x="177.4000000000001" y="25.1"><title>2024-08-06 4.93 mins</title></rect><rect fill="#ace7ae" height="4" rx="1" ry="1" width="4" x="177.4000000000001" y="30.5"><title>2024-08-07 0.03 mins</title></rect><rect fill="#aae6ac" height="4" rx="1" ry="1" width="4" x="177.4000000000001" y="35.9"><title>2024-08-08 6.25 mins</title></rect><rect fill="#a9e6ab" height="4" rx="1" ry="1" width="4" x="177.4000000000001" y="41.300000000000004"><title>2024-08-09 12.92 mins</title></rect><rect fill="#EBEDF0" height="4" rx="1" ry="1" width="4" x="177.4000000000001" y="46.699999999999996"><title>2024-08-10</title></rect><rect fill="#EBEDF0" height="4" rx="1" ry="1" width="4" x="177.4000000000001" y="52.1"><title>2024-08-11</title></rect><rect fill="#aae6ac" height="4" rx="1" ry="1" width="4" x="182.8000000000001" y="19.7"><title>2024-08-12 9.38 mins</title></rect><rect fill="#abe7ad" height="4" rx="1" ry="1" width="4" x="182.8000000000001" y="25.1"><title>2024-08-13 3.07 mins</title></rect><rect fill="#EBEDF0" height="4" rx="1" ry="1" width="4" x="182.8000000000001" y="30.5"><title>2024-08-14</title></rect><rect fill="#aae6ac" height="4" rx="1" ry="1" width="4" x="182.8000000000001" y="35.9"><title>2024-08-15 9.57 mins</title></rect><rect fill="#abe7ad" height="4" rx="1" ry="1" width="4" x="182.8000000000001" y="41.300000000000004"><title>2024-08-16 2.1 mins</title></rect><rect fill="#EBEDF0" height="4" rx="1" ry="1" width="4" x="182.8000000000001" y="46.699999999999996"><title>2024-08-17</title></rect><rect fill="#EBEDF0" height="4" rx="1" ry="1" width="4" x="182.8000000000001" y="52.1"><title>2024-08-18</title></rect><rect fill="#aae6ac" height="4" rx="1" ry="1" width="4" x="188.2000000000001" y="19.7"><title>2024-08-19 6.7 mins</title></rect><rect fill="#abe7ad" height="4" rx="1" ry="1" width="4" x="188.2000000000001" y="25.1"><title>2024-08-20 2.48 mins</title></rect><rect fill="#aae6ac" height="4" rx="1" ry="1" width="4" x="188.2000000000001" y="30.5"><title>2024-08-21 7.67 mins</title></rect><rect fill="#aae6ad" height="4" rx="1" ry="1" width="4" x="188.2000000000001" y="35.9"><title>2024-08-22 5.97 mins</title></rect><rect fill="#abe6ad" height="4" rx="1" ry="1" width="4" x="188.2000000000001" y="41.300000000000004"><title>2024-08-23 4.78 mins</title></rect><rect fill="#EBEDF0" height="4" rx="1" ry="1" width="4" x="188.2000000000001" y="46.699999999999996"><title>2024-08-24</title></rect><rect fill="#EBEDF0" height="4" rx="1" ry="1" width="4" x="188.2000000000001" y="52.1"><title>2024-08-25</title></rect><rect fill="#EBEDF0" height="4" rx="1" ry="1" width="4" x="193.6000000000001" y="19.7"><title>2024-08-26</title></rect><rect fill="#EBEDF0" height="4" rx="1" ry="1" width="4" x="193.6000000000001" y="25.1"><title>2024-08-27</title></rect><rect fill="#ace7ae" height="4" rx="1" ry="1" width="4" x="193.6000000000001" y="30.5"><title>2024-08-28 0.02 mins</title></rect><rect fill="#ace7ae" height="4" rx="1" ry="1" width="4" x="193.6000000000001" y="35.9"><title>2024-08-29 0.12 mins</title></rect><rect fill="#abe6ad" height="4" rx="1" ry="1" width="4" x="193.6000000000001" y="41.300000000000004"><title>2024-08-30 5.35 mins</title></rect><rect fill="#EBEDF0" height="4" rx="1" ry="1" width="4" x="193.6000000000001" y="46.699999999999996"><title>2024-08-31</title></rect><rect fill="#EBEDF0" height="4" rx="1" ry="1" width="4" x="193.6000000000001" y="52.1"><title>2024-09-01</title></rect><text fill="#000000" style="font-size:2.5px; font-family:Arial" x="199.0000000000001" y="18.3">Sep</text><rect fill="#EBEDF0" height="4" rx="1" ry="1" width="4" x="199.0000000000001" y="19.7"><title>2024-09-02</title></rect><rect fill="#EBEDF0" height="4" rx="1" ry="1" width="4" x="199.0000000000001" y="25.1"><title>2024-09-03</title></rect><rect fill="#EBEDF0" height="4" rx="1" ry="1" width="4" x="199.0000000000001" y="30.5"><title>2024-09-04</title></rect><rect fill="#EBEDF0" height="4" rx="1" ry="1" width="4" x="199.0000000000001" y="35.9"><title>2024-09-05</title></rect><rect fill="#EBEDF0" height="4" rx="1" ry="1" width="4" x="199.0000000000001" y="41.300000000000004"><title>2024-09-06</title></rect><rect fill="#EBEDF0" height="4" rx="1" ry="1" width="4" x="199.0000000000001" y="46.699999999999996"><title>2024-09-07</title></rect><rect fill="#ace7ae" height="4" rx="1" ry="1" width="4" x="199.0000000000001" y="52.1"><title>2024-09-08 0.13 mins</title></rect><rect fill="#EBEDF0" height="4" rx="1" ry="1" width="4" x="204.40000000000012" y="19.7"><title>2024-09-09</title></rect><rect fill="#EBEDF0" height="4" rx="1" ry="1" width="4" x="204.40000000000012" y="25.1"><title>2024-09-10</title></rect><rect fill="#EBEDF0" height="4" rx="1" ry="1" width="4" x="204.40000000000012" y="30.5"><title>2024-09-11</title></rect><rect fill="#EBEDF0" height="4" rx="1" ry="1" width="4" x="204.40000000000012" y="35.9"><title>2024-09-12</title></rect><rect fill="#EBEDF0" height="4" rx="1" ry="1" width="4" x="204.40000000000012" y="41.300000000000004"><title>2024-09-13</title></rect><rect fill="#EBEDF0" height="4" rx="1" ry="1" width="4" x="204.40000000000012" y="46.699999999999996"><title>2024-09-14</title></rect><rect fill="#EBEDF0" height="4" rx="1" ry="1" width="4" x="204.40000000000012" y="52.1"><title>2024-09-15</title></rect><rect fill="#EBEDF0" height="4" rx="1" ry="1" width="4" x="209.80000000000013" y="19.7"><title>2024-09-16</title></rect><rect fill="#EBEDF0" height="4" rx="1" ry="1" width="4" x="209.80000000000013" y="25.1"><title>2024-09-17</title></rect><rect fill="#abe7ad" height="4" rx="1" ry="1" width="4" x="209.80000000000013" y="30.5"><title>2024-09-18 2.73 mins</title></rect><rect fill="#abe6ad" height="4" rx="1" ry="1" width="4" x="209.80000000000013" y="35.9"><title>2024-09-19 5.33 mins</title></rect><rect fill="#aae6ac" height="4" rx="1" ry="1" width="4" x="209.80000000000013" y="41.300000000000004"><title>2024-09-20 8.57 mins</title></rect><rect fill="#EBEDF0" height="4" rx="1" ry="1" width="4" x="209.80000000000013" y="46.699999999999996"><title>2024-09-21</title></rect><rect fill="#EBEDF0" height="4" rx="1" ry="1" width="4" x="209.80000000000013" y="52.1"><title>2024-09-22</title></rect><rect fill="#EBEDF0" height="4" rx="1" ry="1" width="4" x="215.20000000000013" y="19.7"><title>2024-09-23</title></rect><rect fill="#EBEDF0" height="4" rx="1" ry="1" width="4" x="215.20000000000013" y="25.1"><title>2024-09-24</title></rect><rect fill="#EBEDF0" height="4" rx="1" ry="1" width="4" x="215.20000000000013" y="30.5"><title>2024-09-25</title></rect><rect fill="#EBEDF0" height="4" rx="1" ry="1" width="4" x="215.20000000000013" y="35.9"><title>2024-09-26</title></rect><rect fill="#EBEDF0" height="4" rx="1" ry="1" width="4" x="215.20000000000013" y="41.300000000000004"><title>2024-09-27</title></rect><rect fill="#EBEDF0" height="4" rx="1" ry="1" width="4" x="215.20000000000013" y="46.699999999999996"><title>2024-09-28</title></rect><rect fill="#EBEDF0" height="4" rx="1" ry="1" width="4" x="215.20000000000013" y="52.1"><title>2024-09-29</title></rect><rect fill="#EBEDF0" height="4" rx="1" ry="1" width="4" x="220.60000000000014" y="19.7"><title>2024-09-30</title></rect><rect fill="#ace7ae" height="4" rx="1" ry="1" width="4" x="220.60000000000014" y="25.1"><title>2024-10-01 0.03 mins</title></rect><rect fill="#EBEDF0" height="4" rx="1" ry="1" width="4" x="220.60000000000014" y="30.5"><title>2024-10-02</title></rect><rect fill="#EBEDF0" height="4" rx="1" ry="1" width="4" x="220.60000000000014" y="35.9"><title>2024-10-03</title></rect><rect fill="#EBEDF0" height="4" rx="1" ry="1" width="4" x="220.60000000000014" y="41.300000000000004"><title>2024-10-04</title></rect><rect fill="#EBEDF0" height="4" rx="1" ry="1" width="4" x="220.60000000000014" y="46.699999999999996"><title>2024-10-05</title></rect><rect fill="#EBEDF0" height="4" rx="1" ry="1" width="4" x="220.60000000000014" y="52.1"><title>2024-10-06</title></rect><text fill="#000000" style="font-size:2.5px; font-family:Arial" x="226.00000000000014" y="18.3">Oct</text><rect fill="#EBEDF0" height="4" rx="1" ry="1" width="4" x="226.00000000000014" y="19.7"><title>2024-10-07</title></rect><rect fill="#66be6b" height="4" rx="1" ry="1" width="4" x="226.00000000000014" y="25.1"><title>2024-10-08 40.37 mins</title></rect><rect fill="#68c06d" height="4" rx="1" ry="1" width="4" x="226.00000000000014" y="30.5"><title>2024-10-09 21.15 mins</title></rect><rect fill="#abe6ad" height="4" rx="1" ry="1" width="4" x="226.00000000000014" y="35.9"><title>2024-10-10 5.18 mins</title></rect><rect fill="#aae6ac" height="4" rx="1" ry="1" width="4" x="226.00000000000014" y="41.300000000000004"><title>2024-10-11 7.18 mins</title></rect><rect fill="#aae6ac" height="4" rx="1" ry="1" width="4" x="226.00000000000014" y="46.699999999999996"><title>2024-10-12 7.48 mins</title></rect><rect fill="#67bf6c" height="4" rx="1" ry="1" width="4" x="226.00000000000014" y="52.1"><title>2024-10-13 37.82 mins</title></rect><rect fill="#aae6ac" height="4" rx="1" ry="1" width="4" x="231.40000000000015" y="19.7"><title>2024-10-14 8.42 mins</title></rect><rect fill="#68c06d" height="4" rx="1" ry="1" width="4" x="231.40000000000015" y="25.1"><title>2024-10-15 16.87 mins</title></rect><rect fill="#EBEDF0" height="4" rx="1" ry="1" width="4" x="231.40000000000015" y="30.5"><title>2024-10-16</title></rect><rect fill="#67bf6c" height="4" rx="1" ry="1" width="4" x="231.40000000000015" y="35.9"><title>2024-10-17 25.07 mins</title></rect><rect fill="#abe6ad" height="4" rx="1" ry="1" width="4" x="231.40000000000015" y="41.300000000000004"><title>2024-10-18 4.87 mins</title></rect><rect fill="#EBEDF0" height="4" rx="1" ry="1" width="4" x="231.40000000000015" y="46.699999999999996"><title>2024-10-19</title></rect><rect fill="#abe6ad" height="4" rx="1" ry="1" width="4" x="231.40000000000015" y="52.1"><title>2024-10-20 5.33 mins</title></rect><rect fill="#abe6ad" height="4" rx="1" ry="1" width="4" x="236.80000000000015" y="19.7"><title>2024-10-21 4.78 mins</title></rect><rect fill="#aae6ad" height="4" rx="1" ry="1" width="4" x="236.80000000000015" y="25.1"><title>2024-10-22 5.97 mins</title></rect><rect fill="#549F57" height="4" rx="1" ry="1" width="4" x="236.80000000000015" y="30.5"><title>2024-10-23 56.83 mins</title></rect><rect fill="#549F57" height="4" rx="1" ry="1" width="4" x="236.80000000000015" y="35.9"><title>2024-10-24 75.8 mins</title></rect><rect fill="#a9e6ab" height="4" rx="1" ry="1" width="4" x="236.80000000000015" y="41.300000000000004"><title>2024-10-25 12.4 mins</title></rect><rect fill="#abe7ad" height="4" rx="1" ry="1" width="4" x="236.80000000000015" y="46.699999999999996"><title>2024-10-26 2.98 mins</title></rect><rect fill="#67bf6c" height="4" rx="1" ry="1" width="4" x="236.80000000000015" y="52.1"><title>2024-10-27 33.13 mins</title></rect><rect fill="#549F57" height="4" rx="1" ry="1" width="4" x="242.20000000000016" y="19.7"><title>2024-10-28 55.15 mins</title></rect><rect fill="#67bf6c" height="4" rx="1" ry="1" width="4" x="242.20000000000016" y="25.1"><title>2024-10-29 29.95 mins</title></rect><rect fill="#a9e5ab" height="4" rx="1" ry="1" width="4" x="242.20000000000016" y="30.5"><title>2024-10-30 13.32 mins</title></rect><rect fill="#67bf6c" height="4" rx="1" ry="1" width="4" x="242.20000000000016" y="35.9"><title>2024-10-31 31.48 mins</title></rect><rect fill="#aae6ac" height="4" rx="1" ry="1" width="4" x="242.20000000000016" y="41.300000000000004"><title>2024-11-01 8.2 mins</title></rect><rect fill="#ace7ae" height="4" rx="1" ry="1" width="4" x="242.20000000000016" y="46.699999999999996"><title>2024-11-02 0.08 mins</title></rect><rect fill="#aae6ac" height="4" rx="1" ry="1" width="4" x="242.20000000000016" y="52.1"><title>2024-11-03 7.65 mins</title></rect><text fill="#000000" style="font-size:2.5px; font-family:Arial" x="247.60000000000016" y="18.3">Nov</text><rect fill="#67bf6c" height="4" rx="1" ry="1" width="4" x="247.60000000000016" y="19.7"><title>2024-11-04 37.62 mins</title></rect><rect fill="#abe6ad" height="4" rx="1" ry="1" width="4" x="247.60000000000016" y="25.1"><title>2024-11-05 4.75 mins</title></rect><rect fill="#aae6ac" height="4" rx="1" ry="1" width="4" x="247.60000000000016" y="30.5"><title>2024-11-06 9.75 mins</title></rect><rect fill="#67bf6c" height="4" rx="1" ry="1" width="4" x="247.60000000000016" y="35.9"><title>2024-11-07 27.27 mins</title></rect><rect fill="#67bf6c" height="4" rx="1" ry="1" width="4" x="247.60000000000016" y="41.300000000000004"><title>2024-11-08 25.33 mins</title></rect><rect fill="#aae6ac" height="4" rx="1" ry="1" width="4" x="247.60000000000016" y="46.699999999999996"><title>2024-11-09 9.52 mins</title></rect><rect fill="#EBEDF0" height="4" rx="1" ry="1" width="4" x="247.60000000000016" y="52.1"><title>2024-11-10</title></rect><rect fill="#EBEDF0" height="4" rx="1" ry="1" width="4" x="253.00000000000017" y="19.7"><title>2024-11-11</title></rect><rect fill="#EBEDF0" height="4" rx="1" ry="1" width="4" x="253.00000000000017" y="25.1"><title>2024-11-12</title></rect><rect fill="#EBEDF0" height="4" rx="1" ry="1" width="4" x="253.00000000000017" y="30.5"><title>2024-11-13</title></rect><rect fill="#EBEDF0" height="4" rx="1" ry="1" width="4" x="253.00000000000017" y="35.9"><title>2024-11-14</title></rect><rect fill="#EBEDF0" height="4" rx="1" ry="1" width="4" x="253.00000000000017" y="41.300000000000004"><title>2024-11-15</title></rect><rect fill="#EBEDF0" height="4" rx="1" ry="1" width="4" x="253.00000000000017" y="46.699999999999996"><title>2024-11-16</title></rect><rect fill="#EBEDF0" height="4" rx="1" ry="1" width="4" x="253.00000000000017" y="52.1"><title>2024-11-17</title></rect><rect fill="#EBEDF0" height="4" rx="1" ry="1" width="4" x="258.40000000000015" y="19.7"><title>2024-11-18</title></rect><rect fill="#EBEDF0" height="4" rx="1" ry="1" width="4" x="258.40000000000015" y="25.1"><title>2024-11-19</title></rect><rect fill="#EBEDF0" height="4" rx="1" ry="1" width="4" x="258.40000000000015" y="30.5"><title>2024-11-20</title></rect><rect fill="#EBEDF0" height="4" rx="1" ry="1" width="4" x="258.40000000000015" y="35.9"><title>2024-11-21</title></rect><rect fill="#EBEDF0" height="4" rx="1" ry="1" width="4" x="258.40000000000015" y="41.300000000000004"><title>2024-11-22</title></rect><rect fill="#EBEDF0" height="4" rx="1" ry="1" width="4" x="258.40000000000015" y="46.699999999999996"><title>2024-11-23</title></rect><rect fill="#EBEDF0" height="4" rx="1" ry="1" width="4" x="258.40000000000015" y="52.1"><title>2024-11-24</title></rect><rect fill="#EBEDF0" height="4" rx="1" ry="1" width="4" x="263.8000000000001" y="19.7"><title>2024-11-25</title></rect><rect fill="#EBEDF0" height="4" rx="1" ry="1" width="4" x="263.8000000000001" y="25.1"><title>2024-11-26</title></rect><rect fill="#EBEDF0" height="4" rx="1" ry="1" width="4" x="263.8000000000001" y="30.5"><title>2024-11-27</title></rect><rect fill="#EBEDF0" height="4" rx="1" ry="1" width="4" x="263.8000000000001" y="35.9"><title>2024-11-28</title></rect><rect fill="#EBEDF0" height="4" rx="1" ry="1" width="4" x="263.8000000000001" y="41.300000000000004"><title>2024-11-29</title></rect><rect fill="#EBEDF0" height="4" rx="1" ry="1" width="4" x="263.8000000000001" y="46.699999999999996"><title>2024-11-30</title></rect><rect fill="#EBEDF0" height="4" rx="1" ry="1" width="4" x="263.8000000000001" y="52.1"><title>2024-12-01</title></rect><text fill="#000000" style="font-size:2.5px; font-family:Arial" x="269.2000000000001" y="18.3">Dec</text><rect fill="#EBEDF0" height="4" rx="1" ry="1" width="4" x="269.2000000000001" y="19.7"><title>2024-12-02</title></rect><rect fill="#EBEDF0" height="4" rx="1" ry="1" width="4" x="269.2000000000001" y="25.1"><title>2024-12-03</title></rect><rect fill="#EBEDF0" height="4" rx="1" ry="1" width="4" x="269.2000000000001" y="30.5"><title>2024-12-04</title></rect><rect fill="#EBEDF0" height="4" rx="1" ry="1" width="4" x="269.2000000000001" y="35.9"><title>2024-12-05</title></rect><rect fill="#EBEDF0" height="4" rx="1" ry="1" width="4" x="269.2000000000001" y="41.300000000000004"><title>2024-12-06</title></rect><rect fill="#EBEDF0" height="4" rx="1" ry="1" width="4" x="269.2000000000001" y="46.699999999999996"><title>2024-12-07</title></rect><rect fill="#EBEDF0" height="4" rx="1" ry="1" width="4" x="269.2000000000001" y="52.1"><title>2024-12-08</title></rect><rect fill="#EBEDF0" height="4" rx="1" ry="1" width="4" x="274.6000000000001" y="19.7"><title>2024-12-09</title></rect><rect fill="#EBEDF0" height="4" rx="1" ry="1" width="4" x="274.6000000000001" y="25.1"><title>2024-12-10</title></rect><rect fill="#EBEDF0" height="4" rx="1" ry="1" width="4" x="274.6000000000001" y="30.5"><title>2024-12-11</title></rect><rect fill="#EBEDF0" height="4" rx="1" ry="1" width="4" x="274.6000000000001" y="35.9"><title>2024-12-12</title></rect><rect fill="#EBEDF0" height="4" rx="1" ry="1" width="4" x="274.6000000000001" y="41.300000000000004"><title>2024-12-13</title></rect><rect fill="#EBEDF0" height="4" rx="1" ry="1" width="4" x="274.6000000000001" y="46.699999999999996"><title>2024-12-14</title></rect><rect fill="#EBEDF0" height="4" rx="1" ry="1" width="4" x="274.6000000000001" y="52.1"><title>2024-12-15</title></rect><rect fill="#EBEDF0" height="4" rx="1" ry="1" width="4" x="280.00000000000006" y="19.7"><title>2024-12-16</title></rect><rect fill="#EBEDF0" height="4" rx="1" ry="1" width="4" x="280.00000000000006" y="25.1"><title>2024-12-17</title></rect><rect fill="#EBEDF0" height="4" rx="1" ry="1" width="4" x="280.00000000000006" y="30.5"><title>2024-12-18</title></rect><rect fill="#EBEDF0" height="4" rx="1" ry="1" width="4" x="280.00000000000006" y="35.9"><title>2024-12-19</title></rect><rect fill="#EBEDF0" height="4" rx="1" ry="1" width="4" x="280.00000000000006" y="41.300000000000004"><title>2024-12-20</title></rect><rect fill="#EBEDF0" height="4" rx="1" ry="1" width="4" x="280.00000000000006" y="46.699999999999996"><title>2024-12-21</title></rect><rect fill="#EBEDF0" height="4" rx="1" ry="1" width="4" x="280.00000000000006" y="52.1"><title>2024-12-22</title></rect><rect fill="#EBEDF0" height="4" rx="1" ry="1" width="4" x="285.40000000000003" y="19.7"><title>2024-12-23</title></rect><rect fill="#EBEDF0" height="4" rx="1" ry="1" width="4" x="285.40000000000003" y="25.1"><title>2024-12-24</title></rect><rect fill="#EBEDF0" height="4" rx="1" ry="1" width="4" x="285.40000000000003" y="30.5"><title>2024-12-25</title></rect><rect fill="#EBEDF0" height="4" rx="1" ry="1" width="4" x="285.40000000000003" y="35.9"><title>2024-12-26</title></rect><rect fill="#EBEDF0" height="4" rx="1" ry="1" width="4" x="285.40000000000003" y="41.300000000000004"><title>2024-12-27</title></rect><rect fill="#EBEDF0" height="4" rx="1" ry="1" width="4" x="285.40000000000003" y="46.699999999999996"><title>2024-12-28</title></rect><rect fill="#EBEDF0" height="4" rx="1" ry="1" width="4" x="285.40000000000003" y="52.1"><title>2024-12-29</title></rect><rect fill="#EBEDF0" height="4" rx="1" ry="1" width="4" x="290.8" y="19.7"><title>2024-12-30</title></rect><rect fill="#EBEDF0" height="4" rx="1" ry="1" width="4" x="290.8" y="25.1"><title>2024-12-31</title></rect></svg>